Coordinates
version=1
nRows=17
nColumns=24
inDegrees=yes

Units are S.I. units (second, meters, Newtons, ...)
Angles are in degrees.

endheader
time	pelvis_tilt	pelvis_list	pelvis_rotation	pelvis_tx	pelvis_ty	pelvis_tz	hip_flexion_r	hip_adduction_r	hip_rotation_r	knee_angle_r	ankle_angle_r	subtalar_angle_r	mtp_angle_r	hip_flexion_l	hip_adduction_l	hip_rotation_l	knee_angle_l	ankle_angle_l	subtalar_angle_l	mtp_angle_l	lumbar_extension	lumbar_bending	lumbar_rotation
      0.76650000	      0.74426705	     -5.91431970	      4.56263181	     -0.51996469	      1.01412857	      0.32459363	      7.48034278	     10.86824948	     -4.66713949	    -10.03698129	     -0.78717181	    -18.78909078	     -0.01683519	     16.08777833	     -5.68303175	      2.90712555	    -66.08576183	     -9.56007277	     -9.18916669	      8.58180725	     -3.46362200	      9.27170326	      1.00652518
      0.77066667	      0.77041033	     -5.83391554	      4.54546974	     -0.51497695	      1.01473482	      0.32479062	      6.95049499	     10.83521089	     -4.60018147	     -9.71827193	     -0.65179536	    -18.70463094	     -0.03464746	     16.64331212	     -5.49876351	      3.03304205	    -65.95796988	     -8.88046303	     -9.47603581	      8.52360598	     -3.54883587	      9.17833272	      1.08219126
      0.77483333	      0.83550558	     -5.75243463	      4.52709787	     -0.50998858	      1.01536571	      0.32500847	      6.36631678	     10.80662556	     -4.51429673	     -9.37454763	     -0.51997754	    -18.58876044	     -0.10802409	     17.14237857	     -5.32966353	      3.13690888	    -65.77340724	     -8.23283247	     -9.72521298	      8.30361348	     -3.68004915	      9.07603267	      1.25547268
      0.77900000	      0.82935211	     -5.67051729	      4.49187634	     -0.50502369	      1.01586634	      0.32520890	      5.88014749	     10.76649496	     -4.43698726	     -9.07455962	     -0.38091136	    -18.52281560	     -0.12154879	     17.70392588	     -5.14335984	      3.24508691	    -65.53745203	     -7.60326318	    -10.03870213	      8.26174094	     -3.71833971	      8.99428302	      1.29963763
      0.78316667	      0.85204794	     -5.59008686	      4.43884143	     -0.50009247	      1.01635985	      0.32546847	      5.36682471	     10.73518459	     -4.32887830	     -8.78013941	     -0.25360046	    -18.43529956	     -0.15067172	     18.22149730	     -4.98261217	      3.31154032	    -65.25260358	     -6.98203474	    -10.34759541	      8.17726760	     -3.83122365	      8.88988191	      1.40036012
      0.78733333	      0.85787163	     -5.49700844	      4.38137540	     -0.49513178	      1.01681226	      0.32571137	      4.86552612	     10.68446938	     -4.23379046	     -8.47938376	     -0.11573076	    -18.35468614	     -0.17342553	     18.73016445	     -4.80281635	      3.38116090	    -64.89955940	     -6.39170102	    -10.64516276	      8.11060272	     -3.88708579	      8.79015667	      1.49760257
      0.79150000	      0.84526765	     -5.39859352	      4.28553897	     -0.49019918	      1.01722579	      0.32600909	      4.39072329	     10.62771186	     -4.08925571	     -8.19423895	      0.03579687	    -18.16567853	     -0.71887622	     19.23738011	     -4.63262870	      3.40694074	    -64.49067056	     -5.82756248	    -10.88392763	      6.66475219	     -3.94839648	      8.65170163	      1.90450056
      0.79566667	      0.86993261	     -5.30902534	      4.22451351	     -0.48527190	      1.01763382	      0.32626219	      3.88099581	     10.57991481	     -4.00360898	     -7.91277896	      0.17214337	    -18.11861955	     -0.73383541	     19.69571294	     -4.46784559	      3.46240157	    -64.03211812	     -5.27114858	    -11.20176123	      6.63232818	     -4.04540336	      8.55631881	      1.86534745
      0.79983333	      0.89390935	     -5.20400707	      4.14670174	     -0.48033978	      1.01803543	      0.32653616	      3.35572728	     10.51710753	     -3.86532337	     -7.60201300	      0.30531743	    -18.03296458	     -0.76897030	     20.12703890	     -4.29370548	      3.49728501	    -63.50366169	     -4.80336321	    -11.48447325	      6.55350966	     -4.14749938	      8.42735129	      1.96738701
      0.80400000	      0.84605033	     -5.13179696	      4.07506216	     -0.47543399	      1.01825258	      0.32679903	      2.93326585	     10.47944510	     -3.76734098	     -7.33034365	      0.43896158	    -17.95686219	     -0.77457277	     20.64168921	     -4.14753690	      3.55637751	    -62.95756938	     -4.31438879	    -11.71001350	      6.53645663	     -4.14367254	      8.34060565	      2.01986716
      0.80816667	      0.86736486	     -5.02831988	      3.94362718	     -0.47052983	      1.01856146	      0.32713448	      2.43299985	     10.41321897	     -3.60015205	     -7.06685251	      0.58011476	    -17.83667737	     -0.81915990	     21.03448837	     -4.00443075	      3.52517864	    -62.32975280	     -3.86845935	    -11.97687402	      6.42603253	     -4.26411946	      8.20943525	      2.26784392
      0.81233333	      0.84587207	     -4.93821863	      3.82643262	     -0.46563593	      1.01875924	      0.32744858	      1.98942541	     10.35412565	     -3.46344163	     -6.81676370	      0.72014698	    -17.71644912	     -0.87440415	     21.46800969	     -3.86740727	      3.52203366	    -61.66427351	     -3.44019838	    -12.18831277	      6.28601552	     -4.31731265	      8.09164792	      2.45179528
      0.81650000	      0.78443027	     -4.87434520	      3.71610929	     -0.46076125	      1.01883518	      0.32775700	      1.59853396	     10.31929804	     -3.33818595	     -6.57504055	      0.84662194	    -17.62620834	     -0.88662750	     21.94483987	     -3.75625177	      3.53284713	    -60.97647754	     -3.01106038	    -12.36409602	      6.24778517	     -4.32764312	      8.00575452	      2.50639045
      0.82066667	      0.78430992	     -4.78147486	      3.56328362	     -0.45587004	      1.01901038	      0.32809588	      1.14108830	     10.25326451	     -3.16750786	     -6.34708464	      0.98413743	    -17.50260649	     -0.91318219	     22.30256935	     -3.63677759	      3.49150794	    -60.19260600	     -2.63863958	    -12.53094684	      6.16561286	     -4.40694406	      7.90313960	      2.66507514
      0.82483333	      0.77955346	     -4.71233128	      3.44489282	     -0.45097754	      1.01910279	      0.32840473	      0.68065007	     10.21112837	     -3.03998399	     -6.09092242	      1.13587988	    -17.35835952	     -0.96767127	     22.66801150	     -3.53679722	      3.48569004	    -59.38488878	     -2.31661438	    -12.66521537	      6.00168651	     -4.48104911	      7.80393023	      2.91463470
      0.82900000	      0.74829849	     -4.63779105	      3.30397982	     -0.44608558	      1.01912984	      0.32871964	      0.26283426	     10.15638642	     -2.90342244	     -5.86632158	      1.28423515	    -17.21485014	     -1.01821332	     23.03641848	     -3.43862015	      3.45532612	    -58.52363206	     -2.00319824	    -12.77938393	      5.84127193	     -4.52058786	      7.70425263	      3.05595534
      0.83316667	      0.68346716	     -4.57650906	      3.15433304	     -0.44122226	      1.01906565	      0.32903013	     -0.10442229	     10.11123797	     -2.74817300	     -5.66488003	      1.40996053	    -17.09264412	     -1.03953714	     23.42617777	     -3.35080196	      3.43733539	    -57.62144118	     -1.69693166	    -12.86382499	      5.76237579	     -4.53634329	      7.63371820	      3.13523827
